<svg width="20" height="20" viewBox="0 0 20 20" fill="none" xmlns="http://www.w3.org/2000/svg">
<path fill-rule="evenodd" clip-rule="evenodd" d="M13.4659 6.86087C13.4659 8.81894 11.9049 10.389 9.95817 10.389C8.01142 10.389 6.45044 8.81894 6.45044 6.86087C6.45044 4.90205 8.01142 3.3335 9.95817 3.3335C11.9049 3.3335 13.4659 4.90205 13.4659 6.86087ZM9.95818 16.6668C7.09886 16.6668 4.65739 16.2135 4.65739 14.4003C4.65739 12.5863 7.08319 12.1165 9.95818 12.1165C12.8175 12.1165 15.259 12.5698 15.259 14.3838C15.259 16.197 12.8332 16.6668 9.95818 16.6668ZM14.9649 6.92452C14.9649 7.92269 14.6672 8.85256 14.1449 9.62559C14.0911 9.70514 14.1389 9.81246 14.2336 9.82897C14.3642 9.85149 14.4993 9.86425 14.6366 9.868C16.0058 9.90402 17.2347 9.01768 17.5742 7.68328C18.0772 5.70119 16.6005 3.92174 14.7202 3.92174C14.5157 3.92174 14.3202 3.94351 14.1299 3.98253C14.1038 3.98854 14.0762 4.00055 14.0613 4.02381C14.0434 4.05233 14.0568 4.09061 14.0747 4.11537C14.6396 4.91166 14.9649 5.88281 14.9649 6.92452ZM17.2325 11.2606C18.1525 11.4415 18.7577 11.8108 19.0084 12.3474C19.2203 12.7879 19.2203 13.299 19.0084 13.7388C18.6249 14.5711 17.3885 14.8383 16.9079 14.9073C16.8087 14.9224 16.7288 14.836 16.7393 14.7362C16.9848 12.4299 15.0321 11.3364 14.5269 11.085C14.5053 11.0738 14.5008 11.0565 14.503 11.046C14.5045 11.0385 14.5135 11.0265 14.5299 11.0242C15.623 11.004 16.7982 11.1541 17.2325 11.2606ZM5.36491 9.86792C5.5022 9.86417 5.63651 9.85216 5.76784 9.8289C5.8626 9.81239 5.91036 9.70506 5.85663 9.62551C5.33432 8.85249 5.03659 7.92261 5.03659 6.92444C5.03659 5.88274 5.36192 4.91158 5.92677 4.1153C5.94468 4.09053 5.95737 4.05226 5.94021 4.02374C5.92528 4.00122 5.89693 3.98846 5.87156 3.98246C5.68054 3.94343 5.48504 3.92167 5.28059 3.92167C3.40025 3.92167 1.92358 5.70112 2.42724 7.6832C2.76675 9.0176 3.99569 9.90395 5.36491 9.86792ZM5.4981 11.0455C5.50034 11.0568 5.49586 11.0733 5.47497 11.0853C4.96907 11.3367 3.01634 12.4302 3.26183 14.7358C3.27228 14.8363 3.19318 14.9219 3.09394 14.9076C2.61341 14.8386 1.37701 14.5714 0.993478 13.7391C0.78082 13.2986 0.78082 12.7882 0.993478 12.3477C1.24419 11.8111 1.84859 11.4418 2.76861 11.2602C3.20363 11.1544 4.3781 11.0043 5.47198 11.0245C5.4884 11.0268 5.49661 11.0388 5.4981 11.0455Z" fill="black"/>
</svg>
