<svg width="20" height="20" viewBox="0 0 20 20" fill="none" xmlns="http://www.w3.org/2000/svg">
<path fill-rule="evenodd" clip-rule="evenodd" d="M6.10964 1.66699H13.8921C16.7263 1.66699 18.3263 3.27449 18.3346 6.10866V13.892C18.3346 16.7253 16.7263 18.3337 13.8921 18.3337H6.10964C3.27547 18.3337 1.66797 16.7253 1.66797 13.892V6.10866C1.66797 3.27449 3.27547 1.66699 6.10964 1.66699ZM10.0421 14.8837C10.4013 14.8837 10.7005 14.617 10.7338 14.2587V5.76699C10.7671 5.50866 10.643 5.24949 10.418 5.10866C10.1838 4.96699 9.90047 4.96699 9.6763 5.10866C9.45047 5.24949 9.3263 5.50866 9.35047 5.76699V14.2587C9.39297 14.617 9.69213 14.8837 10.0421 14.8837ZM13.8763 14.8837C14.2263 14.8837 14.5255 14.617 14.568 14.2587V11.5253C14.5921 11.2578 14.468 11.0087 14.2421 10.867C14.018 10.7253 13.7346 10.7253 13.5013 10.867C13.2755 11.0087 13.1513 11.2578 13.1846 11.5253V14.2587C13.218 14.617 13.5171 14.8837 13.8763 14.8837ZM6.85047 14.2587C6.81714 14.617 6.51797 14.8837 6.1588 14.8837C5.80047 14.8837 5.50047 14.617 5.46797 14.2587V8.50033C5.44297 8.24116 5.56714 7.98366 5.79297 7.84199C6.01714 7.70033 6.3013 7.70033 6.5263 7.84199C6.75047 7.98366 6.8763 8.24116 6.85047 8.50033V14.2587Z" fill="black"/>
</svg>
