<svg width="20" height="20" viewBox="0 0 20 20" fill="none" xmlns="http://www.w3.org/2000/svg">
<path fill-rule="evenodd" clip-rule="evenodd" d="M9.99935 18.3337C5.39935 18.3337 1.66602 14.6087 1.66602 10.0003C1.66602 5.40033 5.39935 1.66699 9.99935 1.66699C14.6077 1.66699 18.3327 5.40033 18.3327 10.0003C18.3327 14.6087 14.6077 18.3337 9.99935 18.3337ZM12.6577 13.092C12.7577 13.1503 12.866 13.1837 12.9827 13.1837C13.191 13.1837 13.3993 13.0753 13.516 12.8753C13.691 12.5837 13.5993 12.2003 13.2993 12.017L10.3327 10.2503V6.40033C10.3327 6.05033 10.0493 5.77533 9.70768 5.77533C9.36602 5.77533 9.08268 6.05033 9.08268 6.40033V10.6087C9.08268 10.8253 9.19935 11.0253 9.39102 11.142L12.6577 13.092Z" fill="black"/>
</svg>
