<svg viewBox="0 0 20 20" fill="none" xmlns="http://www.w3.org/2000/svg">
<path fill-rule="evenodd" clip-rule="evenodd" d="M4.86111 5.51266C4.26838 5.51266 3.78788 5.99099 3.78788 6.58103V15.9827C3.78788 16.5728 4.26838 17.0511 4.86111 17.0511H11.7298C12.3225 17.0511 12.803 16.5728 12.803 15.9827V9.42584C12.803 9.14249 12.69 8.87075 12.4887 8.67039L9.63095 5.82558C9.42968 5.62522 9.1567 5.51266 8.87206 5.51266H4.86111ZM2.5 6.58103C2.5 5.28293 3.55711 4.23061 4.86111 4.23061H8.87206C9.49826 4.23061 10.0988 4.47824 10.5416 4.91903L13.3994 7.76384C13.8422 8.20463 14.0909 8.80247 14.0909 9.42584V15.9827C14.0909 17.2808 13.0338 18.3332 11.7298 18.3332H4.86111C3.55711 18.3332 2.5 17.2808 2.5 15.9827V6.58103Z" fill="#A1A1AA"/>
<path fill-rule="evenodd" clip-rule="evenodd" d="M5.93434 2.30753C5.93434 1.9535 6.22264 1.6665 6.57828 1.6665H10.1599C10.7861 1.6665 11.3867 1.91414 11.8295 2.35493L15.9751 6.48179C16.4179 6.92258 16.6667 7.52042 16.6667 8.14379V14.2733C16.6667 14.6274 16.3784 14.9144 16.0227 14.9144C15.6671 14.9144 15.3788 14.6274 15.3788 14.2733V8.14379C15.3788 7.86044 15.2657 7.5887 15.0644 7.38834L10.9188 3.26148C10.7176 3.06112 10.4446 2.94856 10.1599 2.94856H6.57828C6.22264 2.94856 5.93434 2.66156 5.93434 2.30753Z" fill="#A1A1AA"/>
</svg>
