<svg  viewBox="0 0 20 20" fill="none" xmlns="http://www.w3.org/2000/svg">
<path fill-rule="evenodd" clip-rule="evenodd" d="M1.875 1.875C1.70924 1.875 1.55027 1.94085 1.43306 2.05806C1.31585 2.17527 1.25 2.33424 1.25 2.5C1.25 2.66576 1.31585 2.82473 1.43306 2.94194C1.55027 3.05915 1.70924 3.125 1.875 3.125H2.5V11.875C2.5 12.538 2.76339 13.1739 3.23223 13.6428C3.70107 14.1116 4.33696 14.375 5 14.375H6.00833L5.03167 17.3025C4.97929 17.4599 4.99156 17.6316 5.0658 17.7799C5.14003 17.9282 5.27014 18.041 5.4275 18.0933C5.58486 18.1457 5.75659 18.1334 5.9049 18.0592C6.05321 17.985 6.16595 17.8549 6.21833 17.6975L6.4925 16.875H13.5075L13.7825 17.6975C13.8394 17.8488 13.9527 17.9722 14.0986 18.0417C14.2446 18.1113 14.4118 18.1215 14.5651 18.0704C14.7185 18.0193 14.8461 17.9108 14.9211 17.7676C14.9961 17.6244 15.0128 17.4577 14.9675 17.3025L13.9925 14.375H15C15.663 14.375 16.2989 14.1116 16.7678 13.6428C17.2366 13.1739 17.5 12.538 17.5 11.875V3.125H18.125C18.2908 3.125 18.4497 3.05915 18.5669 2.94194C18.6842 2.82473 18.75 2.66576 18.75 2.5C18.75 2.33424 18.6842 2.17527 18.5669 2.05806C18.4497 1.94085 18.2908 1.875 18.125 1.875H1.875ZM6.90833 15.625L7.325 14.375H12.675L13.0917 15.625H6.90833ZM13.125 5.625C13.125 5.45924 13.0592 5.30027 12.9419 5.18306C12.8247 5.06585 12.6658 5 12.5 5C12.3342 5 12.1753 5.06585 12.0581 5.18306C11.9408 5.30027 11.875 5.45924 11.875 5.625V10.625C11.875 10.7908 11.9408 10.9497 12.0581 11.0669C12.1753 11.1842 12.3342 11.25 12.5 11.25C12.6658 11.25 12.8247 11.1842 12.9419 11.0669C13.0592 10.9497 13.125 10.7908 13.125 10.625V5.625ZM10.625 7.5C10.625 7.33424 10.5592 7.17527 10.4419 7.05806C10.3247 6.94085 10.1658 6.875 10 6.875C9.83424 6.875 9.67527 6.94085 9.55806 7.05806C9.44085 7.17527 9.375 7.33424 9.375 7.5V10.625C9.375 10.7908 9.44085 10.9497 9.55806 11.0669C9.67527 11.1842 9.83424 11.25 10 11.25C10.1658 11.25 10.3247 11.1842 10.4419 11.0669C10.5592 10.9497 10.625 10.7908 10.625 10.625V7.5ZM8.125 9.375C8.125 9.20924 8.05915 9.05027 7.94194 8.93306C7.82473 8.81585 7.66576 8.75 7.5 8.75C7.33424 8.75 7.17527 8.81585 7.05806 8.93306C6.94085 9.05027 6.875 9.20924 6.875 9.375V10.625C6.875 10.7908 6.94085 10.9497 7.05806 11.0669C7.17527 11.1842 7.33424 11.25 7.5 11.25C7.66576 11.25 7.82473 11.1842 7.94194 11.0669C8.05915 10.9497 8.125 10.7908 8.125 10.625V9.375Z" fill="#000000"/>
</svg>
