<svg width="20" height="20" viewBox="0 0 20 20" fill="none" xmlns="http://www.w3.org/2000/svg">
<path fill-rule="evenodd" clip-rule="evenodd" d="M13.4652 6.86087C13.4652 8.81894 11.9043 10.389 9.9575 10.389C8.01075 10.389 6.44976 8.81894 6.44976 6.86087C6.44976 4.90205 8.01075 3.3335 9.9575 3.3335C11.9043 3.3335 13.4652 4.90205 13.4652 6.86087ZM9.9575 16.6668C7.09819 16.6668 4.65672 16.2135 4.65672 14.4003C4.65672 12.5863 7.08252 12.1165 9.9575 12.1165C12.8168 12.1165 15.2583 12.5698 15.2583 14.3838C15.2583 16.197 12.8325 16.6668 9.9575 16.6668ZM14.9642 6.92452C14.9642 7.92269 14.6665 8.85256 14.1442 9.62559C14.0905 9.70514 14.1382 9.81246 14.233 9.82897C14.3636 9.85149 14.4986 9.86425 14.6359 9.868C16.0051 9.90402 17.2341 9.01768 17.5736 7.68328C18.0765 5.70119 16.5998 3.92174 14.7195 3.92174C14.515 3.92174 14.3195 3.94351 14.1293 3.98253C14.1031 3.98854 14.0755 4.00055 14.0606 4.02381C14.0427 4.05233 14.0561 4.09061 14.074 4.11537C14.6389 4.91166 14.9642 5.88281 14.9642 6.92452ZM17.2318 11.2606C18.1519 11.4415 18.757 11.8108 19.0077 12.3474C19.2196 12.7879 19.2196 13.299 19.0077 13.7388C18.6242 14.5711 17.3878 14.8383 16.9072 14.9073C16.808 14.9224 16.7282 14.836 16.7386 14.7362C16.9841 12.4299 15.0314 11.3364 14.5262 11.085C14.5046 11.0738 14.5001 11.0565 14.5023 11.046C14.5038 11.0385 14.5128 11.0265 14.5292 11.0242C15.6223 11.004 16.7976 11.1541 17.2318 11.2606ZM5.36424 9.86792C5.50153 9.86417 5.63584 9.85216 5.76717 9.8289C5.86193 9.81239 5.90969 9.70506 5.85596 9.62551C5.33364 8.85249 5.03592 7.92261 5.03592 6.92444C5.03592 5.88274 5.36125 4.91158 5.9261 4.1153C5.94401 4.09053 5.9567 4.05226 5.93953 4.02374C5.92461 4.00122 5.89626 3.98846 5.87089 3.98246C5.67987 3.94343 5.48437 3.92167 5.27992 3.92167C3.39957 3.92167 1.92291 5.70112 2.42657 7.6832C2.76608 9.0176 3.99502 9.90395 5.36424 9.86792ZM5.49743 11.0455C5.49967 11.0568 5.49519 11.0733 5.4743 11.0853C4.96839 11.3367 3.01567 12.4302 3.26116 14.7358C3.27161 14.8363 3.19251 14.9219 3.09327 14.9076C2.61274 14.8386 1.37634 14.5714 0.992807 13.7391C0.780148 13.2986 0.780148 12.7882 0.992807 12.3477C1.24352 11.8111 1.84792 11.4418 2.76794 11.2602C3.20296 11.1544 4.37743 11.0043 5.47131 11.0245C5.48773 11.0268 5.49594 11.0388 5.49743 11.0455Z" fill="black"/>
</svg>
