<svg width="32" height="32" viewBox="0 0 32 32" fill="none" xmlns="http://www.w3.org/2000/svg">
<path fill-rule="evenodd" clip-rule="evenodd" d="M27.2028 18.107C27.6797 18.3603 28.0476 18.7603 28.3065 19.1603C28.8107 19.987 28.7698 21.0003 28.2793 21.8937L27.3254 23.4937C26.8213 24.347 25.8811 24.8803 24.9136 24.8803C24.4367 24.8803 23.9053 24.747 23.4693 24.4803C23.115 24.2537 22.7062 24.1737 22.2702 24.1737C20.9212 24.1737 19.7902 25.2803 19.7493 26.6003C19.7493 28.1337 18.4957 29.3337 16.9287 29.3337H15.0756C13.4949 29.3337 12.2413 28.1337 12.2413 26.6003C12.2141 25.2803 11.0831 24.1737 9.73414 24.1737C9.28448 24.1737 8.8757 24.2537 8.53505 24.4803C8.09901 24.747 7.55397 24.8803 7.09068 24.8803C6.1096 24.8803 5.1694 24.347 4.66524 23.4937L3.72503 21.8937C3.22087 21.027 3.19362 19.987 3.69778 19.1603C3.9158 18.7603 4.32458 18.3603 4.78787 18.107C5.1694 17.9203 5.41467 17.6137 5.64631 17.2537C6.32762 16.107 5.91884 14.6003 4.76062 13.9203C3.41163 13.1603 2.9756 11.467 3.75229 10.147L4.66524 8.57366C5.45555 7.25366 7.14518 6.78699 8.50779 7.56033C9.69327 8.20033 11.233 7.77366 11.9279 6.64033C12.146 6.26699 12.2686 5.86699 12.2413 5.46699C12.2141 4.94699 12.364 4.45366 12.6229 4.05366C13.127 3.22699 14.04 2.69366 15.0347 2.66699H16.956C17.9643 2.66699 18.8773 3.22699 19.3814 4.05366C19.6267 4.45366 19.7902 4.94699 19.7493 5.46699C19.7221 5.86699 19.8447 6.26699 20.0627 6.64033C20.7577 7.77366 22.2974 8.20033 23.4965 7.56033C24.8455 6.78699 26.5487 7.25366 27.3254 8.57366L28.2384 10.147C29.0287 11.467 28.5927 13.1603 27.2301 13.9203C26.0718 14.6003 25.6631 16.107 26.358 17.2537C26.576 17.6137 26.8213 17.9203 27.2028 18.107ZM12.146 16.0137C12.146 18.107 13.8765 19.7737 16.0158 19.7737C18.1551 19.7737 19.8447 18.107 19.8447 16.0137C19.8447 13.9203 18.1551 12.2403 16.0158 12.2403C13.8765 12.2403 12.146 13.9203 12.146 16.0137Z" fill="currentColor"/>
</svg>
