<svg width="26" height="28" viewBox="0 0 26 28" fill="none" xmlns="http://www.w3.org/2000/svg">
<g id="Setting">
<path id="Setting_2" fill-rule="evenodd" clip-rule="evenodd" d="M24.2028 16.1067C24.6797 16.3601 25.0476 16.7601 25.3065 17.1601C25.8107 17.9867 25.7698 19.0001 25.2793 19.8934L24.3254 21.4934C23.8213 22.3467 22.8811 22.8801 21.9136 22.8801C21.4367 22.8801 20.9053 22.7467 20.4693 22.4801C20.115 22.2534 19.7062 22.1734 19.2702 22.1734C17.9212 22.1734 16.7902 23.2801 16.7493 24.6001C16.7493 26.1334 15.4957 27.3334 13.9287 27.3334H12.0756C10.4949 27.3334 9.24135 26.1334 9.24135 24.6001C9.21409 23.2801 8.08313 22.1734 6.73414 22.1734C6.28448 22.1734 5.8757 22.2534 5.53505 22.4801C5.09901 22.7467 4.55397 22.8801 4.09068 22.8801C3.1096 22.8801 2.1694 22.3467 1.66524 21.4934L0.725034 19.8934C0.220869 19.0267 0.193616 17.9867 0.697782 17.1601C0.9158 16.7601 1.32458 16.3601 1.78787 16.1067C2.1694 15.9201 2.41467 15.6134 2.64631 15.2534C3.32762 14.1067 2.91884 12.6001 1.76062 11.9201C0.411634 11.1601 -0.0244012 9.46675 0.752286 8.14675L1.66524 6.57341C2.45555 5.25341 4.14518 4.78675 5.50779 5.56008C6.69327 6.20008 8.23301 5.77341 8.92795 4.64008C9.14596 4.26675 9.2686 3.86675 9.24135 3.46675C9.21409 2.94675 9.36398 2.45341 9.62288 2.05341C10.127 1.22675 11.04 0.693415 12.0347 0.666748H13.956C14.9643 0.666748 15.8773 1.22675 16.3814 2.05341C16.6267 2.45341 16.7902 2.94675 16.7493 3.46675C16.7221 3.86675 16.8447 4.26675 17.0627 4.64008C17.7577 5.77341 19.2974 6.20008 20.4965 5.56008C21.8455 4.78675 23.5487 5.25341 24.3254 6.57341L25.2384 8.14675C26.0287 9.46675 25.5927 11.1601 24.2301 11.9201C23.0718 12.6001 22.6631 14.1067 23.358 15.2534C23.576 15.6134 23.8213 15.9201 24.2028 16.1067ZM9.14596 14.0134C9.14596 16.1067 10.8765 17.7734 13.0158 17.7734C15.1551 17.7734 16.8447 16.1067 16.8447 14.0134C16.8447 11.9201 15.1551 10.2401 13.0158 10.2401C10.8765 10.2401 9.14596 11.9201 9.14596 14.0134Z" fill="#52525B"/>
</g>
</svg>
