<svg width="32" height="32" viewBox="0 0 32 32" fill="none" xmlns="http://www.w3.org/2000/svg">
<path d="M20.7737 22.4002L16.0003 19.3335L11.227 22.4002L12.667 16.9068L8.28033 13.3335L13.947 12.9868L16.0003 7.7335L18.0537 12.9868L23.7203 13.3335L19.3337 16.9068M26.667 16.0002C26.667 15.2929 26.9479 14.6146 27.448 14.1145C27.9481 13.6144 28.6264 13.3335 29.3337 13.3335V8.00016C29.3337 7.29292 29.0527 6.61464 28.5526 6.11454C28.0525 5.61445 27.3742 5.3335 26.667 5.3335H5.33366C4.62641 5.3335 3.94814 5.61445 3.44804 6.11454C2.94794 6.61464 2.66699 7.29292 2.66699 8.00016V13.3335C3.37424 13.3335 4.05251 13.6144 4.55261 14.1145C5.05271 14.6146 5.33366 15.2929 5.33366 16.0002C5.33366 16.7074 5.05271 17.3857 4.55261 17.8858C4.05251 18.3859 3.37424 18.6668 2.66699 18.6668V24.0002C2.66699 24.7074 2.94794 25.3857 3.44804 25.8858C3.94814 26.3859 4.62641 26.6668 5.33366 26.6668H26.667C27.3742 26.6668 28.0525 26.3859 28.5526 25.8858C29.0527 25.3857 29.3337 24.7074 29.3337 24.0002V18.6668C28.6264 18.6668 27.9481 18.3859 27.448 17.8858C26.9479 17.3857 26.667 16.7074 26.667 16.0002Z" fill="currentColor"/>
</svg>
