<svg width="20" height="20" viewBox="0 0 20 20" fill="none" xmlns="http://www.w3.org/2000/svg">
<path d="M3.125 4.0625C3.125 3.545 3.545 3.125 4.0625 3.125H7.8125C8.33 3.125 8.75 3.545 8.75 4.0625V7.8125C8.75 8.33 8.33 8.75 7.8125 8.75H4.0625C3.81386 8.75 3.5754 8.65123 3.39959 8.47541C3.22377 8.2996 3.125 8.06114 3.125 7.8125V4.0625ZM3.125 12.1875C3.125 11.67 3.545 11.25 4.0625 11.25H7.8125C8.33 11.25 8.75 11.67 8.75 12.1875V15.9375C8.75 16.455 8.33 16.875 7.8125 16.875H4.0625C3.81386 16.875 3.5754 16.7762 3.39959 16.6004C3.22377 16.4246 3.125 16.1861 3.125 15.9375V12.1875ZM11.25 4.0625C11.25 3.545 11.67 3.125 12.1875 3.125H15.9375C16.455 3.125 16.875 3.545 16.875 4.0625V7.8125C16.875 8.33 16.455 8.75 15.9375 8.75H12.1875C11.9389 8.75 11.7004 8.65123 11.5246 8.47541C11.3488 8.2996 11.25 8.06114 11.25 7.8125V4.0625Z" stroke="black" stroke-width="1.5" stroke-linecap="round" stroke-linejoin="round"/>
<path d="M5.625 5.625H6.25V6.25H5.625V5.625ZM5.625 13.75H6.25V14.375H5.625V13.75ZM13.75 5.625H14.375V6.25H13.75V5.625ZM11.25 11.25H11.875V11.875H11.25V11.25ZM11.25 16.25H11.875V16.875H11.25V16.25ZM16.25 11.25H16.875V11.875H16.25V11.25ZM16.25 16.25H16.875V16.875H16.25V16.25ZM13.75 13.75H14.375V14.375H13.75V13.75Z" stroke="black" stroke-width="1.5" stroke-linecap="round" stroke-linejoin="round"/>
</svg>
