<svg width="32" height="32" viewBox="0 0 32 32" fill="none" xmlns="http://www.w3.org/2000/svg">
<g id="navi/ticket">
<path id="Vector" d="M20.7732 22.3999L15.9998 19.3333L11.2265 22.3999L12.6665 16.9066L8.27984 13.3333L13.9465 12.9866L15.9998 7.73325L18.0532 12.9866L23.7198 13.3333L19.3332 16.9066M26.6665 15.9999C26.6665 15.2927 26.9475 14.6144 27.4476 14.1143C27.9476 13.6142 28.6259 13.3333 29.3332 13.3333V7.99992C29.3332 7.29267 29.0522 6.6144 28.5521 6.1143C28.052 5.6142 27.3737 5.33325 26.6665 5.33325H5.33317C4.62593 5.33325 3.94765 5.6142 3.44755 6.1143C2.94746 6.6144 2.6665 7.29267 2.6665 7.99992V13.3333C3.37375 13.3333 4.05203 13.6142 4.55212 14.1143C5.05222 14.6144 5.33317 15.2927 5.33317 15.9999C5.33317 16.7072 5.05222 17.3854 4.55212 17.8855C4.05203 18.3856 3.37375 18.6666 2.6665 18.6666V23.9999C2.6665 24.7072 2.94746 25.3854 3.44755 25.8855C3.94765 26.3856 4.62593 26.6666 5.33317 26.6666H26.6665C27.3737 26.6666 28.052 26.3856 28.5521 25.8855C29.0522 25.3854 29.3332 24.7072 29.3332 23.9999V18.6666C28.6259 18.6666 27.9476 18.3856 27.4476 17.8855C26.9475 17.3854 26.6665 16.7072 26.6665 15.9999Z" fill="#52525B"/>
</g>
</svg>
