<svg width="20" height="20" viewBox="0 0 20 20" fill="none" xmlns="http://www.w3.org/2000/svg">
<path fill-rule="evenodd" clip-rule="evenodd" d="M9.99984 18.3337C5.39984 18.3337 1.6665 14.6087 1.6665 10.0003C1.6665 5.40033 5.39984 1.66699 9.99984 1.66699C14.6082 1.66699 18.3332 5.40033 18.3332 10.0003C18.3332 14.6087 14.6082 18.3337 9.99984 18.3337ZM12.6582 13.092C12.7582 13.1503 12.8665 13.1837 12.9832 13.1837C13.1915 13.1837 13.3998 13.0753 13.5165 12.8753C13.6915 12.5837 13.5998 12.2003 13.2998 12.017L10.3332 10.2503V6.40033C10.3332 6.05033 10.0498 5.77533 9.70817 5.77533C9.3665 5.77533 9.08317 6.05033 9.08317 6.40033V10.6087C9.08317 10.8253 9.19984 11.0253 9.3915 11.142L12.6582 13.092Z" fill="black"/>
</svg>
