<svg width="32" height="32" viewBox="0 0 32 32" fill="none" xmlns="http://www.w3.org/2000/svg">
<path d="M20.7727 22.4002L15.9993 19.3335L11.226 22.4002L12.666 16.9068L8.27935 13.3335L13.946 12.9868L15.9993 7.7335L18.0527 12.9868L23.7193 13.3335L19.3327 16.9068M26.666 16.0002C26.666 15.2929 26.947 14.6146 27.4471 14.1145C27.9472 13.6144 28.6254 13.3335 29.3327 13.3335V8.00016C29.3327 7.29292 29.0517 6.61464 28.5516 6.11454C28.0515 5.61445 27.3733 5.3335 26.666 5.3335H5.33268C4.62544 5.3335 3.94716 5.61445 3.44706 6.11454C2.94697 6.61464 2.66602 7.29292 2.66602 8.00016V13.3335C3.37326 13.3335 4.05154 13.6144 4.55163 14.1145C5.05173 14.6146 5.33268 15.2929 5.33268 16.0002C5.33268 16.7074 5.05173 17.3857 4.55163 17.8858C4.05154 18.3859 3.37326 18.6668 2.66602 18.6668V24.0002C2.66602 24.7074 2.94697 25.3857 3.44706 25.8858C3.94716 26.3859 4.62544 26.6668 5.33268 26.6668H26.666C27.3733 26.6668 28.0515 26.3859 28.5516 25.8858C29.0517 25.3857 29.3327 24.7074 29.3327 24.0002V18.6668C28.6254 18.6668 27.9472 18.3859 27.4471 17.8858C26.947 17.3857 26.666 16.7074 26.666 16.0002Z" fill="#52525B"/>
</svg>
