<svg width="32" height="32" viewBox="0 0 32 32" fill="none" xmlns="http://www.w3.org/2000/svg">
<path fill-rule="evenodd" clip-rule="evenodd" d="M27.2038 18.107C27.6807 18.3603 28.0486 18.7603 28.3075 19.1603C28.8117 19.987 28.7708 21.0003 28.2802 21.8937L27.3264 23.4937C26.8222 24.347 25.882 24.8803 24.9146 24.8803C24.4377 24.8803 23.9063 24.747 23.4702 24.4803C23.1159 24.2537 22.7072 24.1737 22.2711 24.1737C20.9221 24.1737 19.7912 25.2803 19.7503 26.6003C19.7503 28.1337 18.4967 29.3337 16.9297 29.3337H15.0766C13.4959 29.3337 12.2423 28.1337 12.2423 26.6003C12.2151 25.2803 11.0841 24.1737 9.73512 24.1737C9.28546 24.1737 8.87668 24.2537 8.53602 24.4803C8.09999 24.747 7.55494 24.8803 7.09166 24.8803C6.11058 24.8803 5.17038 24.347 4.66621 23.4937L3.72601 21.8937C3.22185 21.027 3.19459 19.987 3.69876 19.1603C3.91678 18.7603 4.32556 18.3603 4.78885 18.107C5.17038 17.9203 5.41565 17.6137 5.64729 17.2537C6.3286 16.107 5.91981 14.6003 4.76159 13.9203C3.41261 13.1603 2.97658 11.467 3.75326 10.147L4.66621 8.57366C5.45653 7.25366 7.14616 6.78699 8.50877 7.56033C9.69424 8.20033 11.234 7.77366 11.9289 6.64033C12.1469 6.26699 12.2696 5.86699 12.2423 5.46699C12.2151 4.94699 12.365 4.45366 12.6239 4.05366C13.128 3.22699 14.041 2.69366 15.0357 2.66699H16.957C17.9653 2.66699 18.8782 3.22699 19.3824 4.05366C19.6277 4.45366 19.7912 4.94699 19.7503 5.46699C19.7231 5.86699 19.8457 6.26699 20.0637 6.64033C20.7586 7.77366 22.2984 8.20033 23.4975 7.56033C24.8465 6.78699 26.5497 7.25366 27.3264 8.57366L28.2394 10.147C29.0297 11.467 28.5936 13.1603 27.231 13.9203C26.0728 14.6003 25.664 16.107 26.359 17.2537C26.577 17.6137 26.8222 17.9203 27.2038 18.107ZM12.1469 16.0137C12.1469 18.107 13.8775 19.7737 16.0168 19.7737C18.156 19.7737 19.8457 18.107 19.8457 16.0137C19.8457 13.9203 18.156 12.2403 16.0168 12.2403C13.8775 12.2403 12.1469 13.9203 12.1469 16.0137Z" fill="#52525B"/>
</svg>
