<svg
    xmlns="http://www.w3.org/2000/svg"
    width="32"
    height="32"
    viewBox="0 0 56 56"
    fill="none"
>
    <g clipPath="url(#clip0_144_4510)">
    <path
        d="M3.16992 13L17.1699 28L3.16992 43"
        stroke="#FF6A00"
        strokeWidth="8.45283"
    />
    <path
        d="M22.2608 55.462C16.8065 54.3816 11.7964 51.7149 7.86401 47.799L14.1666 41.5228C16.8524 44.1973 20.2743 46.0187 23.9997 46.7566C27.725 47.4945 31.5863 47.1158 35.0955 45.6684C38.6047 44.2209 41.604 41.7697 43.7142 38.6248C45.8245 35.4798 46.9508 31.7824 46.9508 28C46.9508 24.2176 45.8245 20.5202 43.7142 17.3752C41.604 14.2303 38.6047 11.7791 35.0955 10.3316C31.5863 8.88419 27.725 8.50546 23.9997 9.24337C20.2743 9.98128 16.8524 11.8027 14.1666 14.4772L7.86401 8.20101C11.7964 4.28514 16.8065 1.6184 22.2608 0.538012C24.012 0.191129 25.7838 0.0127826 27.5524 0.000651549C27.617 0.000217445 27.6816 0 27.7463 0C27.8046 0 27.8628 0.000176692 27.9211 0.000529633C31.5369 0.0229387 35.1329 0.739837 38.5065 2.13137C43.6443 4.25063 48.0357 7.83946 51.1253 12.444C54.2149 17.0486 55.864 22.4621 55.864 28C55.864 33.5379 54.2149 38.9514 51.1253 43.556C48.0357 48.1605 43.6443 51.7494 38.5065 53.8686C35.1322 55.2604 31.5356 55.9773 27.919 55.9995C27.8615 55.9998 27.8039 56 27.7463 56C27.6842 56 27.6222 55.9998 27.5602 55.9994C25.789 55.9877 24.0146 55.8094 22.2608 55.462Z"
        fill="#4358E5"
    />
    </g>
    <defs>
    <clipPath id="clip0_144_4510">
        <rect width="56" height="56" fill="white" />
    </clipPath>
    </defs>
</svg>