<svg width="24" height="24" viewBox="0 0 24 24" fill="none" xmlns="http://www.w3.org/2000/svg">
<path d="M13.7556 7.04441L13.7556 7.04442C13.8416 7.13034 13.8416 7.26963 13.7556 7.35556L9.46475 11.6464L9.1112 12L9.46475 12.3535L13.7556 16.6444L13.7557 16.6445C13.8415 16.7303 13.8416 16.8695 13.7556 16.9556C13.6697 17.0414 13.5304 17.0414 13.4445 16.9556C13.4445 16.9556 13.4445 16.9556 13.4445 16.9555L8.64453 12.1556C8.60325 12.1143 8.58008 12.0583 8.58008 12C8.58008 11.9416 8.60326 11.8857 8.64451 11.8444L13.4445 7.04442L13.4445 7.04441C13.5304 6.9585 13.6697 6.9585 13.7556 7.04441Z" fill="currentColor" stroke="#52525B"/>
</svg>
