<svg width="24" height="24" viewBox="0 0 24 24" fill="none" xmlns="http://www.w3.org/2000/svg">
<g clip-path="url(#clip0_255_9356)">
<path fill-rule="evenodd" clip-rule="evenodd" d="M12 24C15.1826 24 18.2348 22.7357 20.4853 20.4853C22.7357 18.2348 24 15.1826 24 12C24 8.8174 22.7357 5.76516 20.4853 3.51472C18.2348 1.26428 15.1826 0 12 0C8.8174 0 5.76516 1.26428 3.51472 3.51472C1.26428 5.76516 0 8.8174 0 12C0 15.1826 1.26428 18.2348 3.51472 20.4853C5.76516 22.7357 8.8174 24 12 24ZM17.7855 9.2865C17.8724 9.16693 17.9348 9.03142 17.9693 8.88771C18.0038 8.744 18.0097 8.5949 17.9866 8.44893C17.9634 8.30296 17.9118 8.16297 17.8346 8.03695C17.7574 7.91094 17.6561 7.80137 17.5365 7.7145C17.4169 7.62763 17.2814 7.56516 17.1377 7.53066C16.994 7.49616 16.8449 7.49031 16.6989 7.51343C16.553 7.53655 16.413 7.5882 16.287 7.66542C16.1609 7.74264 16.0514 7.84393 15.9645 7.9635L10.74 15.1485L7.92 12.3285C7.81617 12.2211 7.69199 12.1355 7.55471 12.0766C7.41743 12.0177 7.26979 11.9867 7.12042 11.9855C6.97104 11.9842 6.82291 12.0128 6.68468 12.0694C6.54645 12.126 6.42088 12.2096 6.3153 12.3153C6.20972 12.421 6.12625 12.5466 6.06975 12.6849C6.01325 12.8232 5.98485 12.9714 5.98622 13.1207C5.98759 13.2701 6.01869 13.4177 6.07772 13.5549C6.13674 13.6922 6.2225 13.8163 6.33 13.92L10.08 17.67C10.1949 17.785 10.3334 17.8737 10.486 17.9301C10.6385 17.9864 10.8014 18.009 10.9635 17.9963C11.1256 17.9836 11.283 17.9359 11.4249 17.8566C11.5668 17.7772 11.6899 17.668 11.7855 17.5365L17.7855 9.2865Z" fill="#6945F4"/>
</g>
<defs>
<clipPath id="clip0_255_9356">
<rect width="24" height="24" fill="white"/>
</clipPath>
</defs>
</svg>
