<svg width="24" height="24" viewBox="0 0 24 24" fill="none" xmlns="http://www.w3.org/2000/svg">
<path fill-rule="evenodd" clip-rule="evenodd" d="M16.7348 3.845V2.125H15.2348V6.675H14.2348V3.845H9.2648V2.125H7.7648V6.675H6.7648V3.845H3.1748V8.975H20.8248V3.845H16.7348Z" fill="black"/>
<path fill-rule="evenodd" clip-rule="evenodd" d="M8.6448 16.185V17.685H7.1448L7.1348 16.185H8.6448ZM8.6448 12.595V14.095H7.1448L7.1348 12.595H8.6448ZM12.7548 16.185V17.685H11.2548L11.2448 16.185H12.7548ZM12.7548 12.595V14.095H11.2548L11.2448 12.595H12.7548ZM16.8648 16.185V17.685H15.3648L15.3548 16.185H16.8648ZM16.8648 12.595V14.095H15.3648L15.3548 12.595H16.8648ZM3.1748 21.875H20.8248V10.475H3.1748V21.875Z" fill="black"/>
</svg>
