<svg width="24" height="24" viewBox="0 0 24 24" fill="none" xmlns="http://www.w3.org/2000/svg">
<path fill-rule="evenodd" clip-rule="evenodd" d="M17.76 14.602H16.26V12.75H14.932V14.602H13.432V12.75H11.316C10.992 13.818 10.009 14.602 8.837 14.602C7.403 14.602 6.236 13.435 6.236 12C6.236 10.566 7.403 9.398 8.837 9.398C10.01 9.4 10.992 10.183 11.316 11.25H17.76V14.602ZM2.25 21.75H21.75V2.25H2.25V21.75Z" fill="black"/>
<path fill-rule="evenodd" clip-rule="evenodd" d="M8.83911 10.8983C8.23011 10.8983 7.73511 11.3923 7.73511 12.0003C7.73511 12.6083 8.23011 13.1023 8.83711 13.1023C9.44511 13.1023 9.94011 12.6083 9.94011 12.0003C9.94011 11.3933 9.44611 10.8983 8.83911 10.8983Z" fill="black"/>
</svg>
