<svg width="32" height="32" viewBox="0 0 32 32" fill="none" xmlns="http://www.w3.org/2000/svg">
<g clip-path="url(#clip0_197_3372)">
<path d="M1.81152 7.42847L9.81152 15.9999L1.81152 24.5713" stroke="#FF6A00" stroke-width="4.83019"/>
<path d="M12.7209 31.6926C9.60411 31.0752 6.74119 29.5513 4.49414 27.3137L8.09563 23.7273C9.63037 25.2556 11.5858 26.2964 13.7145 26.7181C15.8433 27.1397 18.0498 26.9233 20.055 26.0962C22.0602 25.2691 23.7741 23.8684 24.98 22.0713C26.1858 20.2742 26.8294 18.1614 26.8294 16C26.8294 13.8386 26.1858 11.7258 24.98 9.9287C23.7741 8.13159 22.0602 6.73091 20.055 5.9038C18.0498 5.07668 15.8433 4.86027 13.7145 5.28193C11.5858 5.70359 9.63037 6.74438 8.09563 8.2727L4.49414 4.68629C6.74119 2.44865 9.60411 0.924799 12.7209 0.307435C13.7216 0.109217 14.734 0.00730434 15.7447 0.000372314C15.7815 0.000124254 15.8185 0 15.8554 0C15.8887 0 15.922 0.000100967 15.9553 0.000302647C18.0215 0.0131079 20.0763 0.422764 22.0041 1.21793C24.94 2.42893 27.4494 4.47969 29.2149 7.11088C30.9804 9.74206 31.9227 12.8355 31.9227 16C31.9227 19.1645 30.9804 22.2579 29.2149 24.8891C27.4494 27.5203 24.94 29.5711 22.0041 30.7821C20.076 31.5774 18.0208 31.987 15.9542 31.9997C15.9213 31.9999 15.8884 32 15.8554 32C15.82 32 15.7845 31.9999 15.7491 31.9997C14.737 31.993 13.723 31.8911 12.7209 31.6926Z" fill="#4358E5"/>
</g>
<defs>
<clipPath id="clip0_197_3372">
<rect width="32" height="32" fill="white"/>
</clipPath>
</defs>
</svg>
